<mxfile host="65bd71144e">
    <diagram id="jaoYAFyY816egmSGDaFH" name="Page-1">
        <mxGraphModel dx="1647" dy="1575" grid="1" gridSize="10" guides="1" tooltips="1" connect="1" arrows="1" fold="1" page="1" pageScale="1" pageWidth="850" pageHeight="1100" math="0" shadow="0">
            <root>
                <mxCell id="0"/>
                <mxCell id="1" parent="0"/>
                <mxCell id="6" value="" style="rounded=0;whiteSpace=wrap;html=1;" parent="1" vertex="1">
                    <mxGeometry x="130" y="120" width="620" height="200" as="geometry"/>
                </mxCell>
                <mxCell id="9" value="Text" style="text;html=1;strokeColor=#3700CC;fillColor=#6a00ff;align=center;verticalAlign=middle;whiteSpace=wrap;rounded=0;fontColor=#ffffff;" parent="1" vertex="1">
                    <mxGeometry x="145" y="80" width="560" height="30" as="geometry"/>
                </mxCell>
                <mxCell id="12" value="" style="edgeStyle=none;html=1;" parent="1" target="11" edge="1">
                    <mxGeometry relative="1" as="geometry">
                        <mxPoint x="425" y="-110" as="sourcePoint"/>
                    </mxGeometry>
                </mxCell>
                <mxCell id="17" style="edgeStyle=none;html=1;exitX=1;exitY=0;exitDx=0;exitDy=0;" parent="1" source="11" target="16" edge="1">
                    <mxGeometry relative="1" as="geometry"/>
                </mxCell>
                <mxCell id="11" value="" style="ellipse;whiteSpace=wrap;html=1;" parent="1" vertex="1">
                    <mxGeometry x="365" y="-40" width="120" height="60" as="geometry"/>
                </mxCell>
                <mxCell id="14" value="Actor" style="shape=umlActor;verticalLabelPosition=bottom;verticalAlign=top;html=1;outlineConnect=0;" parent="1" vertex="1">
                    <mxGeometry x="425" y="-230" width="30" height="60" as="geometry"/>
                </mxCell>
                <mxCell id="15" style="edgeStyle=none;html=1;exitX=0.5;exitY=0.5;exitDx=0;exitDy=0;exitPerimeter=0;" parent="1" source="14" target="14" edge="1">
                    <mxGeometry relative="1" as="geometry"/>
                </mxCell>
                <mxCell id="16" value="Actor" style="shape=umlActor;verticalLabelPosition=bottom;verticalAlign=top;html=1;outlineConnect=0;" parent="1" vertex="1">
                    <mxGeometry x="510" y="-220" width="30" height="60" as="geometry"/>
                </mxCell>
                <mxCell id="19" value="" style="whiteSpace=wrap;html=1;aspect=fixed;" parent="1" vertex="1">
                    <mxGeometry x="470" y="-50" width="80" height="80" as="geometry"/>
                </mxCell>
                <mxCell id="20" value="Xx" style="whiteSpace=wrap;html=1;aspect=fixed;" parent="1" vertex="1">
                    <mxGeometry x="740" y="-210" width="80" height="80" as="geometry"/>
                </mxCell>
                <mxCell id="21" value="" style="ellipse;shape=cloud;whiteSpace=wrap;html=1;" parent="1" vertex="1">
                    <mxGeometry x="720" y="-110" width="120" height="80" as="geometry"/>
                </mxCell>
                <mxCell id="22" value="" style="ellipse;shape=cloud;whiteSpace=wrap;html=1;" parent="1" vertex="1">
                    <mxGeometry x="560" y="-110" width="120" height="80" as="geometry"/>
                </mxCell>
                <mxCell id="23" value="Actor" style="shape=umlActor;verticalLabelPosition=bottom;verticalAlign=top;html=1;outlineConnect=0;" parent="1" vertex="1">
                    <mxGeometry x="490" y="20" width="30" height="60" as="geometry"/>
                </mxCell>
                <mxCell id="24" value="Actor" style="shape=umlActor;verticalLabelPosition=bottom;verticalAlign=top;html=1;outlineConnect=0;" parent="1" vertex="1">
                    <mxGeometry x="750" y="-20" width="30" height="60" as="geometry"/>
                </mxCell>
                <mxCell id="25" value="Actor" style="shape=umlActor;verticalLabelPosition=bottom;verticalAlign=top;html=1;outlineConnect=0;" parent="1" vertex="1">
                    <mxGeometry x="490" y="20" width="30" height="60" as="geometry"/>
                </mxCell>
                <mxCell id="26" value="Actor" style="shape=umlActor;verticalLabelPosition=bottom;verticalAlign=top;html=1;outlineConnect=0;" parent="1" vertex="1">
                    <mxGeometry x="490" y="20" width="30" height="60" as="geometry"/>
                </mxCell>
                <mxCell id="29" value="" style="image;html=1;image=img/lib/clip_art/people/Security_Man_128x128.png" vertex="1" parent="1">
                    <mxGeometry x="130" y="480" width="80" height="80" as="geometry"/>
                </mxCell>
                <mxCell id="30" value="airforce" style="image;html=1;image=img/lib/clip_art/people/Pilot_Man_128x128.png" vertex="1" parent="1">
                    <mxGeometry x="220" y="480" width="80" height="80" as="geometry"/>
                </mxCell>
                <mxCell id="32" value="" style="image;html=1;image=img/lib/clip_art/people/Doctor_Woman_128x128.png" vertex="1" parent="1">
                    <mxGeometry x="10" y="480" width="80" height="80" as="geometry"/>
                </mxCell>
                <mxCell id="33" value="" style="image;html=1;image=img/lib/clip_art/people/Suit_Woman_Green_128x128.png" vertex="1" parent="1">
                    <mxGeometry x="345" y="480" width="80" height="80" as="geometry"/>
                </mxCell>
                <mxCell id="34" value="doctor" style="text;html=1;align=center;verticalAlign=middle;resizable=0;points=[];autosize=1;strokeColor=none;fillColor=none;" vertex="1" parent="1">
                    <mxGeometry x="-10" y="558" width="60" height="30" as="geometry"/>
                </mxCell>
                <mxCell id="41" value="police" style="text;html=1;align=center;verticalAlign=middle;resizable=0;points=[];autosize=1;strokeColor=none;fillColor=none;" vertex="1" parent="1">
                    <mxGeometry x="125" y="558" width="50" height="30" as="geometry"/>
                </mxCell>
                <mxCell id="49" value="teacher" style="text;html=1;align=center;verticalAlign=middle;resizable=0;points=[];autosize=1;strokeColor=none;fillColor=none;" vertex="1" parent="1">
                    <mxGeometry x="350" y="558" width="60" height="30" as="geometry"/>
                </mxCell>
            </root>
        </mxGraphModel>
    </diagram>
</mxfile>